# AST/ASF file generated using VICON BodyLanguage
# -----------------------------------------------
:version 1.10
:name VICON
:units
  mass 1.0
  length 0.45
  angle deg
:documentation
   .ast/.asf automatically generated from VICON data using
   VICON BodyBuilder and BodyLanguage model FoxedUp or BRILLIANT.MOD
:root
   order TX TY TZ RX RY RZ
   axis XYZ
   position 0 0 0  
   orientation 0 0 0 
:bonedata
  begin
     id 1 
     name lhipjoint
     direction 0.54267 -0.795011 0.271047 
     length 2.39899 
     axis 0 0 0  XYZ
  end
  begin
     id 2 
     name lfemur
     direction 0.34202 -0.939693 0  
     length 7.49701  
     axis 0 0 20  XYZ
    dof rx ry rz
    limits (-160.0 20.0)
           (-70.0 70.0)
           (-60.0 70.0)
  end
  begin
     id 3 
     name ltibia
     direction 0.34202 -0.939693 0   
     length 8.1668   
     axis 0 0 20   XYZ
    dof rx
    limits (-10.0 170.0)
  end
  begin
     id 4 
     name lfoot
     direction 0.0736283 -0.202292 0.976554   
     length 2.13544   
     axis -90 7.62852e-016 20   XYZ
    dof rx rz
    limits (-45.0 90.0)
           (-70.0 20.0)
  end
  begin
     id 5 
     name ltoes
     direction 1.53557e-011 -4.22024e-011 1   
     length 1.07411   
     axis -90 7.62852e-016 20   XYZ
    dof rx
    limits (-90.0 20.0)
  end
  begin
     id 6 
     name rhipjoint
     direction -0.538061 -0.797813 0.272002   
     length 2.39057  
     axis 0 0 0  XYZ 
  end
  begin
     id 7 
     name rfemur
     direction -0.34202 -0.939693 0   
     length 7.50152   
     axis 0 0 -20   XYZ
    dof rx ry rz
    limits (-160.0 20.0)
           (-70.0 70.0)
           (-70.0 60.0)
  end
  begin
     id 8 
     name rtibia
     direction -0.34202 -0.939693 0   
     length 8.05793   
     axis 0 0 -20   XYZ
    dof rx
    limits (-10.0 170.0)
 end
 begin
     id 9 
     name rfoot
     direction -0.0765195 -0.210236 0.974652   
     length 2.28698  
     axis -90 -7.62852e-016 -20   XYZ
    dof rx rz
    limits (-45.0 90.0)
           (-20.0 70.0)
  end
  begin
     id 10 
     name rtoes
     direction -1.53542e-011 -4.21847e-011 1   
     length 1.14762   
     axis -90 -7.62852e-016 -20   XYZ
    dof rx
    limits (-90.0 20.0)
  end
  begin
     id 11 
     name lowerback
     direction -0.0217239 0.996592 -0.0795765   
     length 2.08176   
     axis 0 0 0   XYZ
    dof rx ry rz
    limits (-20.0 45.0)
           (-30.0 30.0)
           (-30.0 30.0)
  end
  begin
     id 12 
     name upperback
     direction -0.00563773 0.999651 -0.0258155   
     length 2.08898   
     axis 0 0 0   XYZ
    dof rx ry rz
    limits (-20.0 45.0)
           (-30.0 30.0)
           (-30.0 30.0)
  end
  begin
     id 13 
     name thorax
     direction 0.0032706 0.999923 0.0119599   
     length 2.0968   
     axis 0 0 0   XYZ
    dof rx ry rz
    limits (-20.0 45.0)
           (-30.0 30.0)
           (-30.0 30.0)
  end
  begin
     id 14 
     name lowerneck
     direction -0.0285886 0.99568 0.0883427   
     length 1.81272   
     axis 0 0 0   XYZ
    dof rx ry rz
    limits (-20.0 45.0)
           (-30.0 30.0)
           (-30.0 30.0)
  end
  begin
     id 15 
     name upperneck
     direction 0.0807535 0.97985 -0.18268   
     length 1.82518   
     axis 0 0 0   XYZ
    dof rx ry rz
    limits (-20.0 45.0)
           (-30.0 30.0)
           (-30.0 30.0)
  end
  begin
     id 16
     name head
     direction 0.0236605 0.997053 -0.0729767  
     length 1.84443  
     axis 0 0 0   XYZ
    dof rx ry rz
    limits (-20.0 45.0)
           (-30.0 30.0)
           (-30.0 30.0)
  end
  begin
     id 17 
     name lclavicle
     direction 0.918986 0.39378 -0.0200683  
     length 3.27822  
     axis 0 0 0   XYZ
    dof ry rz
    limits (-20.0 10.0)
           (0.0 20.0)
  end
  begin
     id 18 
     name lhumerus
     direction 1 -4.4897e-011 2.09544e-027   
     length 5.5568   
     axis 180 -30 -90   XYZ
    dof rx ry rz
    limits (-60.0 90.0)
           (-90.0 90.0)
           (-90.0 90.0)
  end
  begin
     id 19
     name lradius
     direction 1 -4.48957e-011 -1.27696e-026   
     length 3.63979   
     axis 180 -30 -90   XYZ
    dof rx
    limits (-10.0 170.0)
  end
  begin
     id 20
     name lwrist
     direction 1 -4.49001e-011 -1.49001e-026   
     length 1.8199   
     axis 9.0955e-015 90 90   XYZ
    dof ry
    limits (-180.0 0.0)
 end
  begin
     id 21 
     name lhand
     direction 1 -4.48709e-011 -2.9758e-026   
     length 0.569419   
     axis 1.90115e-014 90 90   XYZ
    dof rx rz
    limits (-90.0 90.0)
           (-45.0 45.0)
  end
  begin
     id 22 
     name lfingers
     direction 1 -4.49175e-011 -5.96505e-026   
     length 0.45908   
     axis 3.80223e-014 90 90   XYZ
    dof rx
    limits (0.0 90.0)
  end
  begin
     id 23
     name lthumb
     direction 0.707107 -6.34864e-011 0.707107   
     length 0.65915   
     axis -90 45 -3.84942e-014   XYZ
    dof rx rz
    limits (-45.0 45.0)
           (-45.0 45.0)
  end
  begin
     id 24 
     name rclavicle
     direction -0.911913 0.396426 -0.106115   
     length 3.46301  
     axis 0 0 0   XYZ 
    dof ry rz
    limits (-10.0 20.0)
           (-20.0 0.0)
  end
  begin
     id 25 
     name rhumerus
     direction -1 -4.48965e-011 7.78516e-028  
     length 5.34339   
     axis 180 30 90   XYZ
    dof rx ry rz
    limits (-90.0 60.0)
           (-90.0 90.0)
           (-90.0 90.0)
  end
  begin
     id 26 
     name rradius
     direction -1 -4.48948e-011 -5.79823e-027   
     length 3.65101   
     axis 180 30 90   XYZ
    dof rx
    limits (-10.0 170.0)
  end
  begin
     id 27 
     name rwrist
     direction -1 -4.48995e-011 -1.48996e-026   
     length 1.8255   
     axis 9.0955e-015 -90 -90   XYZ
    dof ry
    limits (-180.0 0.0)
  end
  begin
     id 28
     name rhand
     direction -1 -4.48957e-011 -2.97937e-026   
     length 0.694249   
     axis 1.90115e-014 -90 -90   XYZ
    dof rx rz
    limits (-90.0 90.0)
           (-45.0 45.0)
  end
  begin
     id 29
     name rfingers
     direction -1 -4.4898e-011 -5.95943e-026   
     length 0.559721   
     axis 3.80223e-014 -90 -90   XYZ
    dof rx
    limits (0.0 90.0)
  end
  begin
     id 30
     name rthumb
     direction -0.707107 -6.34969e-011 0.707107   
     length 0.803651   
     axis -90 -45 3.84942e-014   XYZ
    dof rx rz
    limits (-45.0 45.0)
           (-45.0 45.0)
  end
:hierarchy
  begin
    root lhipjoint rhipjoint lowerback
    lhipjoint lfemur
    lfemur ltibia
    ltibia lfoot
    lfoot ltoes
    rhipjoint rfemur
    rfemur rtibia
    rtibia rfoot
    rfoot rtoes
    lowerback upperback
    upperback thorax
    thorax lowerneck lclavicle rclavicle
    lowerneck upperneck
    upperneck head
    lclavicle lhumerus
    lhumerus lradius
    lradius lwrist
    lwrist lhand lthumb
    lhand lfingers
    rclavicle rhumerus
    rhumerus rradius
    rradius rwrist
    rwrist rhand rthumb
    rhand rfingers
  end

#!OML:ASF H:\Terrain\Walking\May29\JustinRory\rory.ASF
:FULLY-SPECIFIED
:DEGREES
186
root 11.0469 17.5352 -18.8663 -2.01355 68.9548 -6.1659
lowerback 12.0636 0.465986 4.01785
upperback 4.27194 1.24505 1.09321
thorax -2.22891 0.688764 -1.29808
lowerneck 0.0669915 -15.4719 -20.5212
upperneck -0.331633 -21.1757 18.5399
head 4.10043 -10.5116 7.40018
rclavicle -4.11484e-014 7.15625e-015
rhumerus -2.43957 -42.0654 -18.4472
rradius 19.8088
rwrist -15.2886
rhand -17.9315 13.0197
rfingers 7.12502
rthumb 8.33642 -16.7958
lclavicle -4.11484e-014 7.15625e-015
lhumerus -55.6959 25.2033 21.7308
lradius 21.5949
lwrist -18.1185
lhand -7.6346 20.6801
lfingers 7.12502
lthumb 18.2604 49.843
rfemur -16.2456 8.59721 5.99445
rtibia 26.0441
rfoot -9.16911 -23.8138
rtoes -0.481152
lfemur -34.1922 10.7344 -24.0891
ltibia 63.6589
lfoot -24.9872 0.122651
ltoes -10.1254
187
root 11.0578 17.5432 -18.8177 -3.2429 68.9177 -7.83207
lowerback 11.7459 0.453186 4.75906
upperback 4.20697 1.29966 1.24286
thorax -2.10552 0.719757 -1.56056
lowerneck 0.576278 -15.8265 -20.588
upperneck -0.318362 -21.7976 19.1826
head 4.23218 -10.8403 7.53897
rclavicle 6.89783e-014 -2.34566e-014
rhumerus -1.94531 -43.0079 -18.9787
rradius 19.5655
rwrist -14.6491
rhand -18.6087 12.1466
rfingers 7.12502
rthumb 7.68286 -17.6939
lclavicle 6.89783e-014 -2.34566e-014
lhumerus -55.5253 24.8689 21.8273
lradius 21.7691
lwrist -16.8766
lhand -6.9285 21.3237
lfingers 7.12502
lthumb 18.9396 50.4216
rfemur -16.5955 8.45717 6.76748
rtibia 26.2211
rfoot -9.91775 -23.5414
rtoes 2.18019
lfemur -34.4318 11.0021 -23.8912
ltibia 63.1592
lfoot -25.213 0.21461
ltoes -11.0196
188
root 11.063 17.5532 -18.7675 -5.43931 68.8226 -10.4879
lowerback 11.0994 0.368879 5.53898
upperback 4.47326 1.24405 1.74107
thorax -1.4703 0.718784 -1.4579
lowerneck 0.604825 -16.2067 -20.8287
upperneck -0.447562 -22.3445 19.6867
head 4.3893 -11.108 7.62932
rclavicle -1.09332e-015 -2.94201e-014
rhumerus -0.493849 -44.3672 -19.9457
rradius 19.1372
rwrist -13.3799
rhand -19.3291 11.8141
rfingers 7.12502
rthumb 6.98749 -18.0506
lclavicle -1.09332e-015 -2.94201e-014
lhumerus -55.7515 24.7646 22.5026
lradius 22.3545
lwrist -14.9023
lhand -6.87185 21.8869
lfingers 7.12502
lthumb 18.9941 50.9795
rfemur -16.916 8.41318 7.96918
rtibia 26.3545
rfoot -10.065 -23.6672
rtoes 2.81473
lfemur -34.662 11.1786 -23.2695
ltibia 62.6
lfoot -25.4373 0.266843
ltoes -12.957
189
root 11.0733 17.5657 -18.7088 -6.32815 68.8393 -11.4938
lowerback 10.762 0.328794 5.68368
upperback 4.75102 1.18481 1.99953
thorax -1.00233 0.709596 -1.25467
lowerneck 0.879883 -16.5832 -20.804
upperneck -0.947156 -22.8933 20.2921
head 4.38542 -11.394 7.74626
rclavicle -5.12864e-014 -1.43125e-014
rhumerus 0.576185 -45.1523 -20.6953
rradius 18.7094
rwrist -12.5733
rhand -19.6257 12.0078
rfingers 7.12502
rthumb 6.70114 -17.8662
lclavicle -5.12864e-014 -1.43125e-014
lhumerus -55.8842 24.93 22.7241
lradius 22.8039
lwrist -13.6645
lhand -6.91503 21.9268
lfingers 7.12502
lthumb 18.9525 51.0234
rfemur -16.9274 8.25095 8.57121
rtibia 26.4509
rfoot -9.92889 -23.8218
rtoes 2.04563
lfemur -34.4996 11.2123 -23.229
ltibia 61.8805
lfoot -25.4853 0.0624167
ltoes -12.8804
190
root 11.087 17.569 -18.6429 -6.90566 68.8639 -12.0929
lowerback 10.6615 0.3526 5.7451
upperback 4.92177 1.21641 2.131
thorax -0.768775 0.736605 -1.15219
lowerneck 1.40745 -17.04 -20.4136
upperneck -1.64199 -23.5621 20.8959
head 4.26778 -11.7595 7.82426
rclavicle -5.74488e-014 2.38542e-014
rhumerus 1.16874 -45.8706 -21.1432
rradius 18.2552
rwrist -11.5406
rhand -19.6585 11.8538
rfingers 7.12502
rthumb 6.66946 -18.0211
lclavicle -5.74488e-014 2.38542e-014
lhumerus -56.0614 25.5455 22.1905
lradius 23.2241
lwrist -13.3324
lhand -6.15708 21.6614
lfingers 7.12502
lthumb 19.6813 50.6851
rfemur -16.8094 7.64557 9.10088
rtibia 26.6477
rfoot -10.1539 -22.9498
rtoes 2.88839
lfemur -34.181 11.2302 -23.3427
ltibia 61.0218
lfoot -25.5123 0.412741
ltoes -14.1422
191
root 11.0939 17.5631 -18.5732 -7.1271 68.9051 -12.2935
lowerback 10.6328 0.390335 5.60705
upperback 5.00827 1.25497 2.29714
thorax -0.668346 0.75799 -0.905438
lowerneck 2.29967 -17.4501 -20.7927
upperneck -2.33191 -24.2691 22.0017
head 4.27222 -12.168 8.16646
rclavicle -6.79844e-014 5.1684e-015
rhumerus 1.71688 -46.6134 -21.4672
rradius 17.733
rwrist -9.78589
rhand -19.758 12.2117
rfingers 7.12502
rthumb 6.57342 -17.6663
lclavicle -6.79844e-014 5.1684e-015
lhumerus -56.2101 25.5238 22.2442
lradius 23.8956
lwrist -12.1799
lhand -5.30382 21.5569
lfingers 7.12502
lthumb 20.5015 50.4945
rfemur -16.752 6.23215 9.52847
rtibia 27.0485
rfoot -10.072 -21.2355
rtoes 2.74144
lfemur -33.8106 11.1678 -23.602
ltibia 59.991
lfoot -25.77 0.987277
ltoes -15.9994
192
root 11.0897 17.565 -18.5054 -7.48317 68.9115 -12.7622
lowerback 10.6923 0.432452 5.65708
upperback 5.0036 1.32402 2.39043
thorax -0.702707 0.792098 -0.845099
lowerneck 3.29325 -17.8319 -21.374
upperneck -3.04503 -24.9764 23.3505
head 4.33185 -12.5906 8.61055
rclavicle 5.28767e-014 3.22031e-014
rhumerus 2.40917 -48.401 -22.0663
rradius 16.9076
rwrist -6.66883
rhand -20.1252 12.8029
rfingers 7.12502
rthumb 6.2189 -17.0859
lclavicle 5.28767e-014 3.22031e-014
lhumerus -55.9506 24.9725 22.8122
lradius 24.5795
lwrist -10.4604
lhand -5.27625 21.7207
lfingers 7.12502
lthumb 20.528 50.6554
rfemur -17.1262 4.96159 10.026
rtibia 27.6894
rfoot -9.90677 -20.1634
rtoes 1.11499
lfemur -33.5305 11.0557 -23.7005
ltibia 58.7421
lfoot -26.0234 0.723277
ltoes -14.3786
193
root 11.0804 17.5656 -18.437 -7.55475 69.0464 -13.0513
lowerback 10.8197 0.464019 5.72285
upperback 4.906 1.3847 2.38051
thorax -0.868542 0.816954 -0.902339
lowerneck 4.0177 -18.2452 -21.3979
upperneck -3.62391 -25.6465 24.2801
head 4.34337 -12.9839 8.8398
rclavicle -2.88238e-014 3.29983e-014
rhumerus 3.37236 -51.4742 -22.9933
rradius 15.8527
rwrist -2.1095
rhand -20.5712 13.4424
rfingers 7.12502
rthumb 5.78832 -16.4585
lclavicle -2.88238e-014 3.29983e-014
lhumerus -55.4392 24.3055 23.4057
lradius 25.192
lwrist -8.68966
lhand -5.42523 21.7196
lfingers 7.12502
lthumb 20.3848 50.6697
rfemur -17.9102 3.57039 10.4165
rtibia 28.6729
rfoot -10.0112 -19.2049
rtoes 0.982473
lfemur -33.3125 10.7686 -23.9048
ltibia 57.2432
lfoot -26.2287 0.320565
ltoes -11.5502
194
root 11.0748 17.5568 -18.3676 -6.82805 69.1358 -12.3791
lowerback 10.9493 0.515904 5.37797
upperback 4.89894 1.42816 2.35253
thorax -0.95378 0.831714 -0.746413
lowerneck 4.31933 -18.6475 -21.201
upperneck -3.88294 -26.2404 24.9229
head 4.43057 -13.3083 8.91777
rclavicle 3.67752e-014 -2.54444e-014
rhumerus 4.17344 -53.2523 -23.6502
rradius 15.1358
rwrist 1.60657
rhand -20.879 13.6404
rfingers 7.12502
rthumb 5.49117 -16.2685
lclavicle 3.67752e-014 -2.54444e-014
lhumerus -55.0233 23.8598 23.842
lradius 25.6862
lwrist -7.21059
lhand -5.47753 21.4028
lfingers 7.12502
lthumb 20.3345 50.3582
rfemur -18.7479 1.61909 10.4096
rtibia 29.9604
rfoot -10.3646 -17.213
rtoes 3.49786
lfemur -32.8384 10.485 -24.4849
ltibia 55.4435
lfoot -26.3777 0.673166
ltoes -12.0358
195
root 11.0719 17.5388 -18.2961 -6.47975 69.0573 -11.9362
lowerback 11.0776 0.589191 5.1002
upperback 5.05371 1.50522 2.37029
thorax -0.867376 0.872498 -0.581878
lowerneck 4.4531 -19.0664 -20.7304
upperneck -4.20492 -26.7909 25.4399
head 4.46075 -13.6048 8.91961
rclavicle 3.16068e-014 -7.95139e-015
rhumerus 4.68516 -53.8984 -23.9529
rradius 14.6242
rwrist 4.53514
rhand -20.8852 13.3506
rfingers 7.12502
rthumb 5.48516 -16.5584
lclavicle 3.16068e-014 -7.95139e-015
lhumerus -54.6999 23.9567 23.9241
lradius 26.0522
lwrist -6.78652
lhand -5.58237 20.8126
lfingers 7.12502
lthumb 20.2338 49.7787
rfemur -19.5124 -0.493703 10.4733
rtibia 31.5
rfoot -11.1858 -14.5696
rtoes 7.47665
lfemur -32.0628 10.1648 -24.804
ltibia 53.4081
lfoot -26.4449 1.09138
ltoes -14.269
196
root 11.0653 17.5247 -18.2213 -6.78801 68.8477 -12.2278
lowerback 11.2566 0.686275 5.08518
upperback 5.18181 1.64722 2.45709
thorax -0.827628 0.947524 -0.501234
lowerneck 4.66107 -19.6229 -20.4816
upperneck -4.63216 -27.5415 25.9548
head 4.52167 -14.0058 8.9085
rclavicle 1.74931e-014 9.93923e-015
rhumerus 5.13264 -54.5002 -24.173
rradius 14.1477
rwrist 7.31174
rhand -20.9251 13.2613
rfingers 7.12502
rthumb 5.44662 -16.6487
lclavicle 1.74931e-014 9.93923e-015
lhumerus -54.1966 23.8326 24.234
lradius 26.4431
lwrist -6.50846
lhand -5.47442 20.3421
lfingers 7.12502
lthumb 20.3375 49.2972
rfemur -20.3833 -2.66654 10.89
rtibia 33.1664
rfoot -11.6767 -11.8799
rtoes 8.19598
lfemur -31.2062 9.65214 -24.6258
ltibia 51.1186
lfoot -26.4957 0.562329
ltoes -11.9816
197
root 11.0577 17.509 -18.1465 -7.09097 68.4254 -12.5384
lowerback 11.5555 0.827019 5.09686
upperback 5.25935 1.86171 2.61105
thorax -0.904209 1.05499 -0.378306
lowerneck 4.65022 -20.1818 -20.7471
upperneck -4.64837 -28.3708 26.5246
head 4.84224 -14.4115 8.90044
rclavicle -6.34123e-014 2.22639e-014
rhumerus 5.5927 -54.588 -24.2833
rradius 13.7845
rwrist 9.7598
rhand -21.9245 13.2606
rfingers 7.12502
rthumb 4.48163 -16.672
lclavicle -6.34123e-014 2.22639e-014
lhumerus -53.7562 23.1463 25.0284
lradius 27.1419
lwrist -5.70461
lhand -5.09759 20.0979
lfingers 7.12502
lthumb 20.6996 49.014
rfemur -21.4819 -4.45784 11.3085
rtibia 34.9541
rfoot -11.4792 -9.29611
rtoes 6.45278
lfemur -30.3276 9.04641 -24.3215
ltibia 48.69
lfoot -26.4715 0.102539
ltoes -8.87348
198
root 11.0568 17.4954 -18.0745 -7.69676 67.9342 -12.9453
lowerback 11.9597 0.959793 5.26543
upperback 5.46004 2.09077 2.77755
thorax -0.903188 1.17782 -0.333089
lowerneck 4.93975 -20.4333 -20.6171
upperneck -5.11781 -28.7123 27.1566
head 4.83329 -14.6239 9.03203
rclavicle -2.28602e-014 3.02153e-014
rhumerus 5.79261 -53.8121 -23.9725
rradius 13.4768
rwrist 11.6714
rhand -23.0874 13.1089
rfingers 7.12502
rthumb 3.35867 -16.8444
lclavicle -2.28602e-014 3.02153e-014
lhumerus -53.5067 22.2928 25.9053
lradius 28.1651
lwrist -4.77538
lhand -4.79912 19.7162
lfingers 7.12502
lthumb 20.9864 48.6008
rfemur -22.359 -5.89358 11.621
rtibia 36.7953
rfoot -10.9247 -6.6316
rtoes 4.26503
lfemur -29.2239 8.23046 -23.8684
ltibia 46.3975
lfoot -26.4298 0.349719
ltoes -7.76259
199
root 11.0696 17.4755 -18.0103 -7.08237 67.3833 -11.7709
lowerback 12.3974 1.13076 5.06095
upperback 5.8443 2.32006 2.71804
thorax -0.734135 1.30428 -0.313061
lowerneck 3.97062 -20.5771 -20.0254
upperneck -5.3062 -28.6856 27.0442
head 4.81855 -14.5505 8.8378
rclavicle -4.57205e-015 0
rhumerus 6.02815 -53.2259 -23.6308
rradius 13.1725
rwrist 13.8963
rhand -22.0305 12.6625
rfingers 7.12502
rthumb 4.37935 -17.2722
lclavicle -4.57205e-015 0
lhumerus -53.2501 21.9774 26.2729
lradius 29.0165
lwrist -4.58956
lhand -5.05182 19.0343
lfingers 7.12502
lthumb 20.7436 47.9456
rfemur -22.9464 -7.13637 10.9964
rtibia 38.7872
rfoot -10.4576 -3.20291
rtoes 3.50574
lfemur -27.9754 7.67696 -24.0994
ltibia 44.7507
lfoot -25.2582 1.19788
ltoes -2.64624
200
root 11.0902 17.4616 -17.9587 -5.33279 66.6776 -9.40314
lowerback 12.71 1.34252 4.44078
upperback 6.34844 2.54025 2.54975
thorax -0.387225 1.42389 -0.166935
lowerneck 3.13877 -20.7359 -19.7537
upperneck -5.86718 -28.6923 27.3717
head 4.80962 -14.5175 8.81817
rclavicle -1.49089e-014 -1.35174e-014
rhumerus 7.08267 -54.0557 -24.0769
rradius 12.8075
rwrist 17.8659
rhand -20.4237 12.9118
rfingers 7.12502
rthumb 5.93072 -16.9852
lclavicle -1.49089e-014 -1.35174e-014
lhumerus -52.9533 22.2484 26.3343
lradius 29.5815
lwrist -5.15904
lhand -5.5539 18.2516
lfingers 7.12502
lthumb 20.2611 47.2149
rfemur -23.7724 -8.29289 9.59064
rtibia 41.0478
rfoot -9.65279 0.979175
rtoes 5.19572
lfemur -26.898 7.56299 -24.9477
ltibia 44.0886
lfoot -22.2848 2.45751
ltoes 12.52
